<?xml version="1.0" encoding="UTF-8"?>
<svg version="1.1" xmlns="http://www.w3.org/2000/svg" width="383" height="240">
<path d="M0 0 C126.39 0 252.78 0 383 0 C383 79.2 383 158.4 383 240 C256.61 240 130.22 240 0 240 C0 160.8 0 81.6 0 0 Z " fill="#020202" transform="translate(0,0)"/>
<path d="M0 0 C126.39 0 252.78 0 383 0 C383 79.2 383 158.4 383 240 C256.61 240 130.22 240 0 240 C0 160.8 0 81.6 0 0 Z M15 13 C15 70.75 15 128.5 15 188 C131.49 188 247.98 188 368 188 C368 130.25 368 72.5 368 13 C251.51 13 135.02 13 15 13 Z " fill="#F6F6F6" transform="translate(0,0)"/>
<path d="M0 0 C126.39 0 252.78 0 383 0 C383 79.2 383 158.4 383 240 C256.61 240 130.22 240 0 240 C0 160.8 0 81.6 0 0 Z M8 7 C8 81.58 8 156.16 8 233 C129.11 233 250.22 233 375 233 C375 158.42 375 83.84 375 7 C253.89 7 132.78 7 8 7 Z " fill="#030303" transform="translate(0,0)"/>
<path d="M0 0 C3.55644141 3.50517739 7.00192195 7.07032067 10.3125 10.8125 C11.19550781 11.78832031 12.07851562 12.76414062 12.98828125 13.76953125 C15.59325974 17.95267146 15.3919805 20.16557383 15 25 C14.21761963 25.02505615 13.43523926 25.0501123 12.62915039 25.07592773 C9.10675051 25.19149788 5.5846444 25.31439949 2.0625 25.4375 C0.21495117 25.49647461 0.21495117 25.49647461 -1.66992188 25.55664062 C-2.83974609 25.59853516 -4.00957031 25.64042969 -5.21484375 25.68359375 C-6.84087524 25.73858032 -6.84087524 25.73858032 -8.49975586 25.79467773 C-10.939263 25.72364265 -10.939263 25.72364265 -12 27 C-12.10846611 28.73321462 -12.14686827 30.47084456 -12.15821838 32.20741272 C-12.17290161 33.90071968 -12.17290161 33.90071968 -12.18788147 35.62823486 C-12.19363693 36.87763855 -12.1993924 38.12704224 -12.20532227 39.41430664 C-12.22017166 41.37499336 -12.22017166 41.37499336 -12.23532104 43.37528992 C-12.26243408 46.97013761 -12.28340887 50.56499851 -12.30332303 54.15989232 C-12.32514326 57.9128889 -12.35255127 61.66584446 -12.37937927 65.41880798 C-12.42935992 72.5302785 -12.47427874 79.64177173 -12.51740164 86.75328678 C-12.5667282 94.8474998 -12.62166326 102.94167167 -12.67708123 111.03584492 C-12.79098371 127.69052538 -12.89780465 144.34524351 -13 161 C-14.76879389 161.04882604 -16.53797524 161.08375921 -18.3072052 161.11276245 C-19.29235517 161.13369398 -20.27750513 161.15462551 -21.29250813 161.17619133 C-25.18383798 160.92296118 -26.80845025 159.48795586 -29.44921875 156.6953125 C-30.31611328 155.80199219 -31.18300781 154.90867188 -32.07617188 153.98828125 C-32.93791016 153.04339844 -33.79964844 152.09851563 -34.6875 151.125 C-35.59177734 150.18785156 -36.49605469 149.25070313 -37.42773438 148.28515625 C-44 141.3800548 -44 141.3800548 -44 139 C-42.02 139 -40.04 139 -38 139 C-37.67 95.11 -37.34 51.22 -37 6 C-19.675 5.505 -19.675 5.505 -2 5 C-1.34 3.35 -0.68 1.7 0 0 Z " fill="#F9F9F9" transform="translate(230,21)"/>
<path d="M0 0 C4.02387316 2.92645321 7.1026159 6.27350972 10.28125 10.05859375 C12.09944178 12.21066275 12.09944178 12.21066275 15 14.5 C17 17 17 17 16.79663086 20.63378906 C16.10712091 25.06655893 14.77723141 29.15165067 13.25390625 33.359375 C12.97150589 34.1605777 12.68910553 34.9617804 12.39814758 35.78726196 C11.46011489 38.44411136 10.51114449 41.09692316 9.5625 43.75 C8.54404644 46.62747688 7.52854388 49.50598587 6.51300049 52.38449097 C5.79613957 54.41552834 5.0783051 56.44622233 4.35955811 58.47659302 C0.52368899 69.31791487 -3.22911675 80.18758305 -6.98001099 91.05853271 C-9.96090494 99.69270926 -12.9544251 108.32252361 -15.94494629 116.95336914 C-16.9744527 119.92622821 -18.00253523 122.89957613 -19.03027344 125.87304688 C-20.56642843 130.31598761 -22.10837331 134.75687407 -23.6552124 139.19610596 C-24.2134578 140.80114718 -24.76968846 142.40689072 -25.3237915 144.0133667 C-26.07507499 146.19051196 -26.83342315 148.36506212 -27.59375 150.5390625 C-28.01333984 151.74771973 -28.43292969 152.95637695 -28.86523438 154.20166016 C-30 157 -30 157 -32 159 C-37.61 153.39 -43.22 147.78 -49 142 C-45.62936492 130.76454972 -45.62936492 130.76454972 -44.23046875 126.77734375 C-43.90715576 125.85050781 -43.58384277 124.92367187 -43.25073242 123.96875 C-42.89986572 122.9684375 -42.54899902 121.968125 -42.1875 120.9375 C-41.37416484 118.6031554 -40.56172473 116.26849883 -39.75 113.93359375 C-39.53196213 113.30653534 -39.31392426 112.67947693 -39.08927917 112.03341675 C-36.54300435 104.70049768 -34.04332584 97.35174027 -31.54058838 90.00387573 C-25.60969606 72.59628033 -19.64820989 55.19915275 -13.66543579 37.80932617 C-12.76722799 35.19825076 -11.87028798 32.58674525 -10.97445679 29.97485352 C-9.71125073 26.29209045 -8.44370814 22.61082807 -7.17578125 18.9296875 C-6.79821686 17.82724701 -6.42065247 16.72480652 -6.03164673 15.58895874 C-4.20414499 10.2951002 -2.29786872 5.10828667 0 0 Z " fill="#FAFAFA" transform="translate(108,18)"/>
<path d="M0 0 C10.46122845 10.14261236 15.96241394 21.83979865 16.34326172 36.39990234 C16.52925124 52.73550502 16.52925124 52.73550502 11 60 C10.5771875 60.63679688 10.154375 61.27359375 9.71875 61.9296875 C5.68218761 67.39782144 0.00720306 70.08191026 -6 73 C-5.42090398 76.77815142 -4.36074423 79.48178796 -2.40234375 82.75390625 C-1.5825 84.13896362 -1.5825 84.13896362 -0.74609375 85.55200195 C-0.14925781 86.54546631 0.44757813 87.53893066 1.0625 88.5625 C2.33587031 90.71281087 3.6079519 92.86388528 4.87890625 95.015625 C5.54937988 96.14806641 6.21985352 97.28050781 6.91064453 98.44726562 C10.14722526 103.934595 13.3070444 109.46605623 16.46481323 114.99899292 C17.47262136 116.76453633 18.482423 118.52892766 19.49243164 120.29321289 C23.40951341 127.15247829 27.24735243 134.04939089 31 141 C25.12721555 142.12457575 19.13069928 143.08048593 13.93017578 139.62451172 C9.82456038 136.06075419 6.28671267 132.01146464 2.7421875 127.90136719 C0.05689758 124.97072847 -2.92718703 122.51625756 -6 120 C-4.02 119.505 -4.02 119.505 -2 119 C-2.25002304 111.66599091 -5.88525203 106.22583996 -9.5 100 C-10.45459106 98.32659546 -10.45459106 98.32659546 -11.4284668 96.61938477 C-15.15865376 90.10467208 -18.9592909 83.63372615 -22.85717773 77.21801758 C-25.66986529 72.58469125 -28.38744384 67.90159602 -31.0625 63.1875 C-31.45735596 62.49841553 -31.85221191 61.80933105 -32.2590332 61.09936523 C-35 56.23643894 -35 56.23643894 -35 54 C-33.96101563 53.78085938 -32.92203125 53.56171875 -31.8515625 53.3359375 C-22.21076922 51.19161029 -12.58610123 48.92283128 -6.125 40.8125 C-0.62712338 31.55515332 0.56056066 22.9492025 0.25 12.3125 C0.23195313 11.12205078 0.21390625 9.93160156 0.1953125 8.70507812 C0.14868489 5.80250969 0.08326281 2.90170889 0 0 Z " fill="#F8F8F8" transform="translate(332,42)"/>
<path d="M0 0 C3.4534417 1.48108873 5.64921326 3.42821699 8.265625 6.10546875 C9.47798828 7.33426758 9.47798828 7.33426758 10.71484375 8.58789062 C11.55144531 9.44576172 12.38804688 10.30363281 13.25 11.1875 C18.41513659 16.46210181 23.56400573 21.65069325 29.20214844 26.4230957 C33.01698686 29.76910893 35.43383124 32.31691934 37.18359375 37.1484375 C37.55178223 38.14762207 37.9199707 39.14680664 38.29931641 40.17626953 C38.67491699 41.23185059 39.05051758 42.28743164 39.4375 43.375 C40.024104 44.99124268 40.024104 44.99124268 40.62255859 46.64013672 C41.39917721 48.78267719 42.17173714 50.92669382 42.93994141 53.07226562 C43.8394782 55.55666113 44.76981905 58.0231778 45.73046875 60.484375 C46.19066406 61.68578125 46.65085938 62.8871875 47.125 64.125 C47.51945312 65.13820313 47.91390625 66.15140625 48.3203125 67.1953125 C49.57561981 72.37525877 47.78720892 76.9799879 45.93359375 81.8359375 C45.53076172 82.89941406 45.12792969 83.96289062 44.71289062 85.05859375 C44.29201172 86.15300781 43.87113281 87.24742188 43.4375 88.375 C43.01275391 89.49261719 42.58800781 90.61023438 42.15039062 91.76171875 C41.10520253 94.50974139 40.05493476 97.25570752 39 100 C38.34 100 37.68 100 37 100 C36.7407222 99.28623199 36.4814444 98.57246399 36.21430969 97.83706665 C32.918022 88.76480508 29.6171158 79.69423117 26.3125 70.625 C26.05030418 69.90539597 25.78810837 69.18579193 25.51796722 68.44438171 C17.84118463 47.37962048 10.08829723 26.35063996 1.94189453 5.46191406 C1.25143649 3.65720206 0.61104155 1.83312464 0 0 Z " fill="#FAFAFA" transform="translate(18,21)"/>
<path d="M0 0 C2.58112528 2.58112528 3.96363676 4.42608709 5.70703125 7.53515625 C6.21169922 8.42783203 6.71636719 9.32050781 7.23632812 10.24023438 C7.75646484 11.17158203 8.27660156 12.10292969 8.8125 13.0625 C9.83873132 14.88734479 10.86607304 16.71156558 11.89453125 18.53515625 C12.34675049 19.343479 12.79896973 20.15180176 13.26489258 20.98461914 C14.88769621 23.90562193 14.88769621 23.90562193 16.50952148 26.16461182 C20.91889273 32.74584336 21.82900689 37.64055856 21.5859375 45.4765625 C21.57744781 46.52782318 21.56895813 47.57908386 21.56021118 48.66220093 C21.52691458 51.98422485 21.45167823 55.30372336 21.375 58.625 C21.34486981 60.89189176 21.3174994 63.15882198 21.29296875 65.42578125 C21.22720209 70.95136668 21.127096 76.47550287 21 82 C13.25830078 82.15625 13.25830078 82.15625 10.93359375 80.75 C10.43988281 80.1725 9.94617188 79.595 9.4375 79 C8.87160156 78.36191406 8.30570312 77.72382813 7.72265625 77.06640625 C7.15417969 76.38449219 6.58570313 75.70257813 6 75 C5.40058594 74.32839844 4.80117188 73.65679687 4.18359375 72.96484375 C0.69575942 69.05515472 -2.66606526 65.04113302 -6 61 C-4.35 60.34 -2.7 59.68 -1 59 C-0.67 39.53 -0.34 20.06 0 0 Z " fill="#F9F9F9" transform="translate(280,100)"/>
<path d="M0 0 C20 0 20 0 28 5 C32.84440528 9.94971844 35 14.05009801 35 21 C34.15695312 21.04898438 33.31390625 21.09796875 32.4453125 21.1484375 C31.34960938 21.22320312 30.25390625 21.29796875 29.125 21.375 C28.03445313 21.44460937 26.94390625 21.51421875 25.8203125 21.5859375 C22.86953526 21.73253491 22.86953526 21.73253491 21 24 C20.62731113 26.91188245 20.62731113 26.91188245 20.5859375 30.3203125 C20.54726563 31.57714844 20.50859375 32.83398438 20.46875 34.12890625 C20.4378125 35.44761719 20.406875 36.76632813 20.375 38.125 C20.33681971 39.46486918 20.29776794 40.80471383 20.2578125 42.14453125 C20.16328242 45.42945148 20.08054267 48.71470706 20 52 C13.4 52 6.8 52 0 52 C0 34.84 0 17.68 0 0 Z " fill="#FBFBFB" transform="translate(281,27)"/>
<path d="M0 0 C3.81642542 3.58512691 5.21102783 7.86006645 5.4375 13 C4.95091769 18.10911427 3.83304345 21.27761551 0.0625 24.8125 C-4.58540732 26.55546524 -9.04505394 26.74556166 -13.9375 25.9375 C-16.83433868 23.7359026 -18.33047231 22.15155538 -19.9375 18.9375 C-20.08651491 16.83696284 -20.15888453 14.73062175 -20.1875 12.625 C-20.21328125 11.49449219 -20.2390625 10.36398438 -20.265625 9.19921875 C-19.90110821 5.57574832 -19.17623288 3.78633802 -16.9375 0.9375 C-12.04782398 -2.42732903 -5.38102809 -1.94632931 0 0 Z " fill="#121212" transform="translate(64.9375,201.0625)"/>
<path d="M0 0 C1.98 0 3.96 0 6 0 C8.64 5.61 11.28 11.22 14 17 C15.423125 14.1846875 15.423125 14.1846875 16.875 11.3125 C17.40867187 10.25675781 17.94234375 9.20101562 18.4921875 8.11328125 C19.78688105 5.44004095 20.94023254 2.7728867 22 0 C23.98 0 25.96 0 28 0 C28.33921452 3.18690233 28.67029417 6.37460104 29 9.5625 C29.09539062 10.45775391 29.19078125 11.35300781 29.2890625 12.27539062 C29.79567965 17.21490788 30.10897382 22.03488014 30 27 C28.35 27 26.7 27 25 27 C23.515 18.585 23.515 18.585 22 10 C19.36 15.61 16.72 21.22 14 27 C13.34 27 12.68 27 12 27 C9.03 20.73 6.06 14.46 3 8 C2.34 14.27 1.68 20.54 1 27 C0.01 27 -0.98 27 -2 27 C-2.28994872 17.86661545 -1.1741788 9.03698325 0 0 Z " fill="#121212" transform="translate(76,200)"/>
<path d="M0 0 C12 0 12 0 17 3 C17.55859375 4.9375 17.55859375 4.9375 17.4375 7 C17.41558594 7.680625 17.39367187 8.36125 17.37109375 9.0625 C17 11 17 11 15 14 C14.34 14 13.68 14 13 14 C15.83716913 20.40877378 15.83716913 20.40877378 21 25 C21 25.66 21 26.32 21 27 C17.75 27.3125 17.75 27.3125 14 27 C10.54473084 23.8248878 9.24657179 20.46688226 8 16 C7.34 16 6.68 16 6 16 C6 19.63 6 23.26 6 27 C4.02 27 2.04 27 0 27 C0 18.09 0 9.18 0 0 Z " fill="#171717" transform="translate(324,200)"/>
<path d="M0 0 C12 0 12 0 17 3 C17.55859375 4.9375 17.55859375 4.9375 17.4375 7 C17.41558594 7.680625 17.39367187 8.36125 17.37109375 9.0625 C17 11 17 11 15 14 C14.34 14 13.68 14 13 14 C15.83716913 20.40877378 15.83716913 20.40877378 21 25 C21 25.66 21 26.32 21 27 C17.75 27.3125 17.75 27.3125 14 27 C10.54473084 23.8248878 9.24657179 20.46688226 8 16 C7.34 16 6.68 16 6 16 C6 19.63 6 23.26 6 27 C4.02 27 2.04 27 0 27 C0 18.09 0 9.18 0 0 Z " fill="#151515" transform="translate(200,200)"/>
<path d="M0 0 C4.71675352 1.17918838 6.76794216 3.42443937 10 6.8125 C10.52078125 7.34681641 11.0415625 7.88113281 11.578125 8.43164062 C12.55822497 9.43772809 13.53519107 10.44688603 14.5078125 11.46020508 C16.3173998 13.32752626 18.16131914 15.16131914 20 17 C20 11.39 20 5.78 20 0 C20.99 0 21.98 0 23 0 C23 8.91 23 17.82 23 27 C19.54740307 25.27370154 17.92761399 24.16774527 15.328125 21.5234375 C14.66425781 20.853125 14.00039063 20.1828125 13.31640625 19.4921875 C12.63449219 18.79351562 11.95257813 18.09484375 11.25 17.375 C10.55261719 16.66859375 9.85523438 15.9621875 9.13671875 15.234375 C7.41992535 13.49406388 5.70935181 11.74762088 4 10 C3.67 15.61 3.34 21.22 3 27 C2.01 27 1.02 27 0 27 C0 18.09 0 9.18 0 0 Z " fill="#0F0E0F" transform="translate(274,200)"/>
<path d="M0 0 C6.93 0 13.86 0 21 0 C21 6.27 21 12.54 21 19 C13 19 13 19 10.64453125 17.05859375 C10.03996094 16.19363281 9.43539062 15.32867187 8.8125 14.4375 C7.83216797 13.07431641 7.83216797 13.07431641 6.83203125 11.68359375 C6.22746094 10.79800781 5.62289062 9.91242187 5 9 C4.0003873 7.66637628 3.00045085 6.33299508 2 5 C0 2 0 2 0 0 Z " fill="#FBFBFB" transform="translate(155,27)"/>
<path d="M0 0 C1.65 0 3.3 0 5 0 C5.02505615 0.62567871 5.0501123 1.25135742 5.07592773 1.89599609 C5.19175273 4.72254619 5.31453985 7.54875169 5.4375 10.375 C5.47681641 11.35984375 5.51613281 12.3446875 5.55664062 13.359375 C5.59853516 14.30039063 5.64042969 15.24140625 5.68359375 16.2109375 C5.72025146 17.08024902 5.75690918 17.94956055 5.79467773 18.84521484 C5.87401544 21.0483262 5.87401544 21.0483262 7 23 C11.00254456 23.09181134 11.00254456 23.09181134 15 23 C16.65079442 21.34920558 16.22549447 19.36263821 16.31640625 17.08984375 C16.35830078 16.10048828 16.40019531 15.11113281 16.44335938 14.09179688 C16.48267578 13.05087891 16.52199219 12.00996094 16.5625 10.9375 C16.60568359 9.89271484 16.64886719 8.84792969 16.69335938 7.77148438 C16.79981225 5.18113116 16.9018276 2.59067814 17 0 C18.65 0 20.3 0 22 0 C22.0875127 3.22899426 22.14056146 6.45768116 22.1875 9.6875 C22.21263672 10.59951172 22.23777344 11.51152344 22.26367188 12.45117188 C22.35882136 21.17320802 22.35882136 21.17320802 19 25 C16.0948524 26.9870968 13.54674539 27.34623317 10.0625 27.4375 C8.81146484 27.49744141 8.81146484 27.49744141 7.53515625 27.55859375 C3.57976029 26.68706583 2.30678995 25.32930323 0 22 C-0.60219543 18.20830212 -0.47164118 14.5142334 -0.3125 10.6875 C-0.28994141 9.66076172 -0.26738281 8.63402344 -0.24414062 7.57617188 C-0.18537575 5.0492821 -0.10327849 2.52539745 0 0 Z " fill="#0D0D0D" transform="translate(132,200)"/>
<path d="M0 0 C2.1953125 1.5859375 2.1953125 1.5859375 4 4 C4.49609375 7.34765625 4.49609375 7.34765625 4.4375 11.0625 C4.43621094 12.29097656 4.43492188 13.51945313 4.43359375 14.78515625 C4 18 4 18 2.69140625 19.91015625 C-0.17560724 21.75749289 -2.70580021 21.35294998 -6 21 C-8.61593153 19.16884793 -8.96989455 18.09031634 -10 15 C-10.1441942 13.00346488 -10.2205659 11.00151894 -10.25 9 C-10.27578125 7.948125 -10.3015625 6.89625 -10.328125 5.8125 C-10 3 -10 3 -8.69921875 1.15234375 C-5.80335251 -0.81151956 -3.37448167 -0.41441003 0 0 Z " fill="#F7F7F7" transform="translate(60,203)"/>
<path d="M0 0 C4.95 0 9.9 0 15 0 C15 0.99 15 1.98 15 3 C12.03 3 9.06 3 6 3 C6 5.97 6 8.94 6 12 C8.64 12 11.28 12 14 12 C14 12.66 14 13.32 14 14 C11.36 14 8.72 14 6 14 C6 17.3 6 20.6 6 24 C9.3 24 12.6 24 16 24 C16 24.99 16 25.98 16 27 C10.72 27 5.44 27 0 27 C0 18.09 0 9.18 0 0 Z " fill="#1B1B1B" transform="translate(347,200)"/>
<path d="M0 0 C12 0 12 0 15.25 1.5625 C17 4 17 4 17.625 7.4375 C16.84009531 11.91145674 15.66900829 13.36788535 12 16 C8.6875 16.3125 8.6875 16.3125 6 16 C7.2375 14.948125 7.2375 14.948125 8.5 13.875 C11.30423396 11.21372773 11.30423396 11.21372773 11.3125 7.6875 C11.209375 6.800625 11.10625 5.91375 11 5 C9.02 4.34 7.04 3.68 5 3 C5 10.92 5 18.84 5 27 C3.35 27 1.7 27 0 27 C0 18.09 0 9.18 0 0 Z " fill="#0B0B0B" transform="translate(111,200)"/>
<path d="M0 0 C4.95 0 9.9 0 15 0 C15 0.99 15 1.98 15 3 C11.7 3 8.4 3 5 3 C5 5.97 5 8.94 5 12 C7.97 12 10.94 12 14 12 C14 12.66 14 13.32 14 14 C11.03 14 8.06 14 5 14 C5 17.3 5 20.6 5 24 C8.3 24 11.6 24 15 24 C15 24.99 15 25.98 15 27 C10.05 27 5.1 27 0 27 C0 18.09 0 9.18 0 0 Z " fill="#0A0A0B" transform="translate(181,200)"/>
<path d="M0 0 C0.99386719 0.00902344 1.98773438 0.01804688 3.01171875 0.02734375 C4.15060547 0.04474609 4.15060547 0.04474609 5.3125 0.0625 C5.3125 1.3825 5.3125 2.7025 5.3125 4.0625 C4.54164063 4.03929687 3.77078125 4.01609375 2.9765625 3.9921875 C1.47222656 3.96511719 1.47222656 3.96511719 -0.0625 3.9375 C-1.06023437 3.91429687 -2.05796875 3.89109375 -3.0859375 3.8671875 C-5.85012173 3.79033152 -5.85012173 3.79033152 -7.6875 6.0625 C-8.00827211 9.3162327 -8.00827211 9.3162327 -7.9375 13 C-7.94265625 14.24652344 -7.9478125 15.49304688 -7.953125 16.77734375 C-7.94377355 20.20441449 -7.94377355 20.20441449 -5.6875 23.0625 C-2.79141601 23.42748034 -2.79141601 23.42748034 0.4375 23.25 C1.53320312 23.22292969 2.62890625 23.19585937 3.7578125 23.16796875 C4.60085937 23.13316406 5.44390625 23.09835938 6.3125 23.0625 C5.9825 24.0525 5.6525 25.0425 5.3125 26.0625 C0.68614546 27.60461818 -3.86143161 27.70456465 -8.6875 27.0625 C-12.10061667 24.53679367 -13.35387768 23.06336696 -14.6875 19.0625 C-15.26599816 14.46380579 -15.74402098 9.98162355 -13.453125 5.8203125 C-9.38029385 0.96114267 -6.35570294 -0.07477298 0 0 Z " fill="#151415" transform="translate(244.6875,199.9375)"/>
<path d="M0 0 C4.62 0 9.24 0 14 0 C14 0.99 14 1.98 14 3 C11.03 3 8.06 3 5 3 C5 5.97 5 8.94 5 12 C7.64 12 10.28 12 13 12 C13 12.66 13 13.32 13 14 C10.36 14 7.72 14 5 14 C5 17.3 5 20.6 5 24 C8.3 24 11.6 24 15 24 C15 24.99 15 25.98 15 27 C10.05 27 5.1 27 0 27 C0 18.09 0 9.18 0 0 Z " fill="#0C0C0C" transform="translate(255,200)"/>
<path d="M0 0 C6.93 0 13.86 0 21 0 C21 0.99 21 1.98 21 3 C18.69 3 16.38 3 14 3 C14 10.92 14 18.84 14 27 C12.02 27 10.04 27 8 27 C8 19.08 8 11.16 8 3 C5.36 3 2.72 3 0 3 C0 2.01 0 1.02 0 0 Z " fill="#1A1A1A" transform="translate(300,200)"/>
<path d="M0 0 C1.07765625 0.01804688 2.1553125 0.03609375 3.265625 0.0546875 C4.49539062 0.08949219 4.49539062 0.08949219 5.75 0.125 C5.42 1.445 5.09 2.765 4.75 4.125 C3.97914062 4.09019531 3.20828125 4.05539063 2.4140625 4.01953125 C0.90972656 3.97892578 0.90972656 3.97892578 -0.625 3.9375 C-1.62273438 3.90269531 -2.62046875 3.86789063 -3.6484375 3.83203125 C-4.93621094 3.97705078 -4.93621094 3.97705078 -6.25 4.125 C-8.48177054 7.47265581 -8.49633323 8.59561285 -8.4375 12.5 C-8.43105469 13.43585938 -8.42460937 14.37171875 -8.41796875 15.3359375 C-8.29024046 18.51665695 -8.29024046 18.51665695 -7.25 23.125 C-2.96 23.125 1.33 23.125 5.75 23.125 C5.75 24.115 5.75 25.105 5.75 26.125 C1.10456983 27.43387409 -3.4624025 27.83771678 -8.25 27.125 C-11.07424288 24.93477082 -12.66508603 23.29482793 -14.25 20.125 C-14.42471848 18.02551399 -14.51717852 15.91875592 -14.5625 13.8125 C-14.59988281 12.68199219 -14.63726563 11.55148438 -14.67578125 10.38671875 C-14.15997187 6.43533493 -13.05817297 4.90366503 -10.25 2.125 C-6.92344848 -0.20917691 -3.99195199 -0.08678156 0 0 Z " fill="#111011" transform="translate(35.25,199.875)"/>
<path d="M0 0 C6.93 0 13.86 0 21 0 C21 0.99 21 1.98 21 3 C18.36 3 15.72 3 13 3 C13 10.92 13 18.84 13 27 C11.35 27 9.7 27 8 27 C8 19.08 8 11.16 8 3 C5.36 3 2.72 3 0 3 C0 2.01 0 1.02 0 0 Z " fill="#0B0B0B" transform="translate(157,200)"/>
<path d="M0 0 C1.65 0 3.3 0 5 0 C5.0875127 3.22899426 5.14056146 6.45768116 5.1875 9.6875 C5.22520508 11.05551758 5.22520508 11.05551758 5.26367188 12.45117188 C5.35917232 21.20537942 5.35917232 21.20537942 2 25 C-1.1875 25.8125 -1.1875 25.8125 -4 26 C-3.5155542 25.44731445 -3.0311084 24.89462891 -2.53198242 24.32519531 C-0.73142141 21.59235976 -0.58258842 20.0410415 -0.48828125 16.796875 C-0.45283203 15.8171875 -0.41738281 14.8375 -0.38085938 13.828125 C-0.35830078 12.81234375 -0.33574219 11.7965625 -0.3125 10.75 C-0.27833984 9.71875 -0.24417969 8.6875 -0.20898438 7.625 C-0.12661907 5.08344188 -0.05743166 2.54222374 0 0 Z " fill="#060506" transform="translate(149,200)"/>
<path d="M0 0 C0.66 0.33 1.32 0.66 2 1 C2.37890625 3.765625 2.37890625 3.765625 2.5625 7.25 C2.78516949 11.26713929 3.10691045 15.07335835 4 19 C6.64 19.33 9.28 19.66 12 20 C11.67 20.66 11.34 21.32 11 22 C2.8372093 22.62790698 2.8372093 22.62790698 -0.5 20.125 C-3.0986746 16.44354431 -3.18973538 14.06728064 -3.25 9.5625 C-3.28867187 7.83193359 -3.28867187 7.83193359 -3.328125 6.06640625 C-3 3 -3 3 -1.484375 1.08984375 C-0.74960937 0.55037109 -0.74960937 0.55037109 0 0 Z " fill="#0A0A0A" transform="translate(48,204)"/>
<path d="M0 0 C1.65 0 3.3 0 5 0 C7 2 7 2 7.4375 4.875 C7 8 7 8 4.5 10.375 C3.675 10.91125 2.85 11.4475 2 12 C2.99 12.66 3.98 13.32 5 14 C3.68 14 2.36 14 1 14 C1 17.3 1 20.6 1 24 C0.67 24 0.34 24 0 24 C0 16.08 0 8.16 0 0 Z " fill="#DADADA" transform="translate(116,203)"/>
<path d="M0 0 C1.65 0 3.3 0 5 0 C5.66 0.66 6.32 1.32 7 2 C6.625 5.625 6.625 5.625 6 9 C4.02 9.33 2.04 9.66 0 10 C0 6.7 0 3.4 0 0 Z " fill="#E0E0E0" transform="translate(205,203)"/>
<path d="M0 0 C4.875 0.875 4.875 0.875 6 2 C5.71269945 4.33944736 5.38063221 6.6739143 5 9 C3.35 9.33 1.7 9.66 0 10 C0 6.7 0 3.4 0 0 Z " fill="#F3F3F3" transform="translate(330,203)"/>
<path d="M0 0 C0.33 0 0.66 0 1 0 C1 4.95 1 9.9 1 15 C0.01 15 -0.98 15 -2 15 C-2.3690205 4.44191344 -2.3690205 4.44191344 0 0 Z " fill="#050505" transform="translate(76,212)"/>
<path d="M0 0 C3.63 0 7.26 0 11 0 C11 1.32 11 2.64 11 4 C7.04 4 3.08 4 -1 4 C-0.67 2.68 -0.34 1.36 0 0 Z " fill="#0D0D0D" transform="translate(239,200)"/>
<path d="M0 0 C0.6875 1.625 0.6875 1.625 1 4 C-0.4375 7.25 -0.4375 7.25 -2 10 C-2.99 10 -3.98 10 -5 10 C-4.55090939 8.51800098 -4.09043436 7.03944764 -3.625 5.5625 C-3.36976562 4.73878906 -3.11453125 3.91507813 -2.8515625 3.06640625 C-2 1 -2 1 0 0 Z " fill="#181818" transform="translate(97,206)"/>
<path d="M0 0 C-0.33 0.99 -0.66 1.98 -1 3 C-2.65 3.33 -4.3 3.66 -6 4 C-6 3.34 -6 2.68 -6 2 C-7.32 1.67 -8.64 1.34 -10 1 C-2.25 0 -2.25 0 0 0 Z " fill="#2D2D2D" transform="translate(251,223)"/>
<path d="M0 0 C0.33 0 0.66 0 1 0 C1 1.98 1 3.96 1 6 C1.66 6 2.32 6 3 6 C3 7.32 3 8.64 3 10 C2.01 10 1.02 10 0 10 C0 6.7 0 3.4 0 0 Z " fill="#3B3B3B" transform="translate(74,217)"/>
<path d="M0 0 C3.16115776 1.36983503 3.9927092 1.9890638 6 5 C5.01 5.99 4.02 6.98 3 8 C2.01 5.36 1.02 2.72 0 0 Z " fill="#BFBFBF" transform="translate(18,21)"/>
</svg>
